Roboto-Delta-XOPQ2.ufo
<glyph name="plus" format="2">
  <advance width="825"/>
  <unicode hex="002B"/>
  <outline>
    <contour>
      <point x="57" y="671" type="line"/>
      <point x="57" y="678" type="line"/>
      <point x="768" y="678" type="line"/>
      <point x="768" y="671" type="line"/>
    </contour>
    <contour>
      <point x="411" y="303" type="line"/>
      <point x="411" y="1046" type="line"/>
      <point x="418" y="1046" type="line"/>
      <point x="418" y="303" type="line"/>
    </contour>
  </outline>
</glyph>
<glyph name="less" format="2">
  <advance width="825"/>
  <unicode hex="003C"/>
  <outline>
    <contour>
      <point x="638" y="350" type="line"/>
      <point x="140" y="671" type="line"/>
      <point x="140" y="683" type="line"/>
      <point x="638" y="999" type="line"/>
      <point x="638" y="991" type="line"/>
      <point x="144" y="677" type="line"/>
      <point x="638" y="358" type="line"/>
    </contour>
  </outline>
</glyph>
<glyph name="equal" format="2">
  <advance width="825"/>
  <unicode hex="003D"/>
  <outline>
    <contour>
      <point x="57" y="542" type="line"/>
      <point x="57" y="549" type="line"/>
      <point x="768" y="549" type="line"/>
      <point x="768" y="542" type="line"/>
    </contour>
    <contour>
      <point x="57" y="777" type="line"/>
      <point x="57" y="784" type="line"/>
      <point x="768" y="784" type="line"/>
      <point x="768" y="777" type="line"/>
    </contour>
  </outline>
</glyph>
<glyph name="greater" format="2">
  <advance width="825"/>
  <unicode hex="003E"/>
  <outline>
    <contour>
      <point x="187" y="350" type="line"/>
      <point x="187" y="358" type="line"/>
      <point x="681" y="677" type="line"/>
      <point x="187" y="991" type="line"/>
      <point x="187" y="999" type="line"/>
      <point x="685" y="683" type="line"/>
      <point x="685" y="671" type="line"/>
    </contour>
  </outline>
</glyph>
<glyph name="logicalnot" format="2">
  <advance width="825"/>
  <unicode hex="00AC"/>
  <outline>
    <contour>
      <point x="711" y="801" type="line"/>
      <point x="711" y="376" type="line"/>
      <point x="704" y="376" type="line"/>
      <point x="704" y="637" type="line"/>
      <point x="63" y="637" type="line"/>
      <point x="63" y="801" type="line"/>
    </contour>
  </outline>
</glyph>
<glyph name="registered" format="2">
  <advance width="1012"/>
  <unicode hex="00AE"/>
  <outline>
    <contour>
      <point x="38" y="687" type="qcurve" smooth="yes"/>
      <point x="38" y="1039"/>
      <point x="274" y="1519"/>
      <point x="501" y="1519" type="qcurve" smooth="yes"/>
      <point x="729" y="1519"/>
      <point x="974" y="1039"/>
      <point x="974" y="687" type="qcurve" smooth="yes"/>
      <point x="974" y="337"/>
      <point x="728" y="-147"/>
      <point x="501" y="-147" type="qcurve" smooth="yes"/>
      <point x="273" y="-147"/>
      <point x="38" y="337"/>
    </contour>
    <contour>
      <point x="45" y="687" type="qcurve" smooth="yes"/>
      <point x="45" y="400"/>
      <point x="274" y="4"/>
      <point x="501" y="4" type="qcurve" smooth="yes"/>
      <point x="725" y="4"/>
      <point x="967" y="400"/>
      <point x="967" y="687" type="qcurve" smooth="yes"/>
      <point x="967" y="975"/>
      <point x="726" y="1367"/>
      <point x="501" y="1367" type="qcurve" smooth="yes"/>
      <point x="275" y="1367"/>
      <point x="45" y="975"/>
    </contour>
    <contour>
      <point x="335" y="226" type="line"/>
      <point x="335" y="1159" type="line"/>
      <point x="449" y="1159" type="line" smooth="yes"/>
      <point x="603" y="1159"/>
      <point x="701" y="1018"/>
      <point x="701" y="877" type="qcurve" smooth="yes"/>
      <point x="701" y="764"/>
      <point x="591" y="598"/>
      <point x="514" y="598" type="qcurve" smooth="yes"/>
      <point x="339" y="598" type="line"/>
      <point x="339" y="739" type="line"/>
      <point x="474" y="739" type="line"/>
      <point x="579" y="739"/>
      <point x="694" y="796"/>
      <point x="694" y="877" type="qcurve" smooth="yes"/>
      <point x="694" y="941"/>
      <point x="598" y="1008"/>
      <point x="449" y="1008" type="qcurve"/>
      <point x="342" y="1008" type="line"/>
      <point x="342" y="226" type="line"/>
    </contour>
    <contour>
      <point x="720" y="226" type="line"/>
      <point x="501" y="673" type="line"/>
      <point x="505" y="673" type="line"/>
      <point x="523" y="639"/>
      <point x="564" y="560"/>
      <point x="578" y="531" type="qcurve" smooth="yes"/>
      <point x="724" y="234" type="line"/>
      <point x="724" y="226" type="line"/>
    </contour>
  </outline>
</glyph>
<glyph name="plusminus" format="2">
  <advance width="825"/>
  <unicode hex="00B1"/>
  <outline>
    <contour>
      <point x="55" y="689" type="line"/>
      <point x="55" y="696" type="line"/>
      <point x="766" y="696" type="line"/>
      <point x="766" y="689" type="line"/>
    </contour>
    <contour>
      <point x="411" y="321" type="line"/>
      <point x="411" y="1064" type="line"/>
      <point x="418" y="1064" type="line"/>
      <point x="418" y="321" type="line"/>
    </contour>
    <contour>
      <point x="46" y="230" type="line"/>
      <point x="46" y="237" type="line"/>
      <point x="780" y="237" type="line"/>
      <point x="780" y="230" type="line"/>
    </contour>
  </outline>
</glyph>
<glyph name="multiply" format="2">
  <advance width="825"/>
  <unicode hex="00D7"/>
  <outline>
    <contour>
      <point x="138" y="377" type="line"/>
      <point x="133" y="381" type="line"/>
      <point x="693" y="957" type="line"/>
      <point x="698" y="952" type="line"/>
    </contour>
    <contour>
      <point x="697" y="377" type="line"/>
      <point x="126" y="953" type="line"/>
      <point x="131" y="958" type="line"/>
      <point x="702" y="381" type="line"/>
    </contour>
  </outline>
</glyph>
<glyph name="divide" format="2">
  <advance width="825"/>
  <unicode hex="00F7"/>
  <outline>
    <contour>
      <point x="389" y="922" type="qcurve" smooth="yes"/>
      <point x="389" y="933"/>
      <point x="401" y="947"/>
      <point x="414" y="947" type="qcurve" smooth="yes"/>
      <point x="426" y="947"/>
      <point x="439" y="933"/>
      <point x="439" y="922" type="qcurve" smooth="yes"/>
      <point x="439" y="912"/>
      <point x="426" y="898"/>
      <point x="414" y="898" type="qcurve" smooth="yes"/>
      <point x="401" y="898"/>
      <point x="389" y="912"/>
    </contour>
    <contour>
      <point x="389" y="426" type="qcurve" smooth="yes"/>
      <point x="389" y="437"/>
      <point x="401" y="451"/>
      <point x="414" y="451" type="qcurve" smooth="yes"/>
      <point x="426" y="451"/>
      <point x="439" y="437"/>
      <point x="439" y="426" type="qcurve" smooth="yes"/>
      <point x="439" y="416"/>
      <point x="426" y="402"/>
      <point x="414" y="402" type="qcurve" smooth="yes"/>
      <point x="401" y="402"/>
      <point x="389" y="416"/>
    </contour>
    <contour>
      <point x="57" y="671" type="line"/>
      <point x="57" y="678" type="line"/>
      <point x="794" y="678" type="line"/>
      <point x="794" y="671" type="line"/>
    </contour>
  </outline>
</glyph>
<glyph name="dieresiscomb" format="2">
  <unicode hex="0308"/>
  <anchor x="0" y="1052" name="_GRK_top"/>
  <anchor x="0" y="1052" name="_top"/>
  <anchor x="0" y="1431" name="top"/>
  <outline>
    <contour>
      <point x="-117" y="1227" type="qcurve"/>
      <point x="-117" y="1232"/>
      <point x="-111" y="1238"/>
      <point x="-106" y="1238" type="qcurve"/>
      <point x="-101" y="1238"/>
      <point x="-96" y="1232"/>
      <point x="-96" y="1227" type="qcurve"/>
      <point x="-96" y="1222"/>
      <point x="-101" y="1216"/>
      <point x="-106" y="1216" type="qcurve"/>
      <point x="-111" y="1216"/>
      <point x="-117" y="1222"/>
    </contour>
    <contour>
      <point x="96" y="1227" type="qcurve"/>
      <point x="96" y="1232"/>
      <point x="102" y="1238"/>
      <point x="107" y="1238" type="qcurve"/>
      <point x="112" y="1238"/>
      <point x="117" y="1232"/>
      <point x="117" y="1227" type="qcurve"/>
      <point x="117" y="1222"/>
      <point x="112" y="1216"/>
      <point x="107" y="1216" type="qcurve"/>
      <point x="102" y="1216"/>
      <point x="96" y="1222"/>
    </contour>
  </outline>
</glyph>
<glyph name="quoteleft" format="2">
  <advance width="234"/>
  <unicode hex="2018"/>
  <outline>
    <contour>
      <point x="111.55963302752298" y="1073" type="line"/>
      <point x="111.55963302752298" y="1194" type="line" smooth="yes"/>
      <point x="111.55963302752298" y="1284"/>
      <point x="37.55963302752298" y="1488"/>
      <point x="109.55963302752298" y="1556" type="qcurve"/>
      <point x="214.55963302752298" y="1483" type="line"/>
      <point x="168.55963302752298" y="1417"/>
      <point x="118.55963302752298" y="1278"/>
      <point x="118.55963302752298" y="1197" type="qcurve" smooth="yes"/>
      <point x="118.55963302752298" y="1073" type="line"/>
    </contour>
  </outline>
</glyph>
<glyph name="quoteright" format="2">
  <advance width="234"/>
  <unicode hex="2019"/>
  <outline>
    <contour>
      <point x="121" y="1456" type="line"/>
      <point x="121" y="1328" type="line" smooth="yes"/>
      <point x="121" y="1238"/>
      <point x="197" y="1034"/>
      <point x="125" y="966" type="qcurve"/>
      <point x="19" y="1039" type="line"/>
      <point x="64" y="1100"/>
      <point x="114" y="1245"/>
      <point x="114" y="1325" type="qcurve" smooth="yes"/>
      <point x="114" y="1456" type="line"/>
    </contour>
  </outline>
</glyph>
<glyph name="quotesinglbase" format="2">
  <advance width="234"/>
  <unicode hex="201A"/>
  <outline>
    <contour>
      <point x="121" y="220" type="line"/>
      <point x="121" y="92" type="line" smooth="yes"/>
      <point x="121" y="2"/>
      <point x="197" y="-202"/>
      <point x="125" y="-270" type="qcurve"/>
      <point x="19" y="-197" type="line"/>
      <point x="64" y="-136"/>
      <point x="114" y="9"/>
      <point x="114" y="89" type="qcurve" smooth="yes"/>
      <point x="114" y="220" type="line"/>
    </contour>
  </outline>
</glyph>
<glyph name="quotedblleft" format="2">
  <advance width="478"/>
  <unicode hex="201C"/>
  <outline>
    <contour>
      <point x="112" y="1073" type="line"/>
      <point x="112" y="1194" type="line" smooth="yes"/>
      <point x="112" y="1284"/>
      <point x="38" y="1488"/>
      <point x="110" y="1556" type="qcurve"/>
      <point x="215" y="1483" type="line"/>
      <point x="169" y="1417"/>
      <point x="119" y="1278"/>
      <point x="119" y="1197" type="qcurve" smooth="yes"/>
      <point x="119" y="1073" type="line"/>
    </contour>
    <contour>
      <point x="356" y="1073" type="line"/>
      <point x="356" y="1194" type="line" smooth="yes"/>
      <point x="356" y="1284"/>
      <point x="282" y="1488"/>
      <point x="354" y="1556" type="qcurve"/>
      <point x="459" y="1483" type="line"/>
      <point x="413" y="1417"/>
      <point x="363" y="1278"/>
      <point x="363" y="1197" type="qcurve" smooth="yes"/>
      <point x="363" y="1073" type="line"/>
    </contour>
  </outline>
</glyph>
<glyph name="quotedblright" format="2">
  <advance width="478"/>
  <unicode hex="201D"/>
  <outline>
    <contour>
      <point x="121" y="1456" type="line"/>
      <point x="121" y="1328" type="line" smooth="yes"/>
      <point x="121" y="1238"/>
      <point x="197" y="1034"/>
      <point x="125" y="966" type="qcurve"/>
      <point x="19" y="1039" type="line"/>
      <point x="64" y="1100"/>
      <point x="114" y="1245"/>
      <point x="114" y="1325" type="qcurve" smooth="yes"/>
      <point x="114" y="1456" type="line"/>
    </contour>
    <contour>
      <point x="365" y="1456" type="line"/>
      <point x="365" y="1328" type="line" smooth="yes"/>
      <point x="365" y="1238"/>
      <point x="441" y="1034"/>
      <point x="369" y="966" type="qcurve"/>
      <point x="263" y="1039" type="line"/>
      <point x="308" y="1100"/>
      <point x="358" y="1245"/>
      <point x="358" y="1325" type="qcurve" smooth="yes"/>
      <point x="358" y="1456" type="line"/>
    </contour>
  </outline>
</glyph>
<glyph name="quotedblbase" format="2">
  <advance width="478"/>
  <unicode hex="201E"/>
  <outline>
    <contour>
      <point x="121" y="220" type="line"/>
      <point x="121" y="92" type="line" smooth="yes"/>
      <point x="121" y="2"/>
      <point x="197" y="-202"/>
      <point x="125" y="-270" type="qcurve"/>
      <point x="19" y="-197" type="line"/>
      <point x="64" y="-136"/>
      <point x="114" y="9"/>
      <point x="114" y="89" type="qcurve" smooth="yes"/>
      <point x="114" y="220" type="line"/>
    </contour>
    <contour>
      <point x="365" y="220" type="line"/>
      <point x="365" y="92" type="line" smooth="yes"/>
      <point x="365" y="2"/>
      <point x="441" y="-202"/>
      <point x="369" y="-270" type="qcurve"/>
      <point x="263" y="-197" type="line"/>
      <point x="308" y="-136"/>
      <point x="358" y="9"/>
      <point x="358" y="89" type="qcurve" smooth="yes"/>
      <point x="358" y="220" type="line"/>
    </contour>
  </outline>
</glyph>
<glyph name="rupeeIndian" format="2">
  <advance width="758"/>
  <unicode hex="20B9"/>
  <outline>
    <contour>
      <point x="19" y="934" type="line"/>
      <point x="19" y="1089" type="line"/>
      <point x="734" y="1089" type="line"/>
      <point x="734" y="934" type="line"/>
    </contour>
    <contour>
      <point x="736" y="0" type="line"/>
      <point x="605" y="313" type="line" smooth="yes"/>
      <point x="519" y="519"/>
      <point x="329" y="642"/>
      <point x="127" y="642" type="qcurve" smooth="yes"/>
      <point x="19" y="642" type="line"/>
      <point x="19" y="647" type="line"/>
      <point x="264" y="647" type="line" smooth="yes"/>
      <point x="418" y="647"/>
      <point x="594" y="865"/>
      <point x="594" y="1019" type="qcurve" smooth="yes"/>
      <point x="594" y="1145"/>
      <point x="461" y="1299"/>
      <point x="291" y="1299" type="qcurve" smooth="yes"/>
      <point x="19" y="1299" type="line"/>
      <point x="19" y="1456" type="line"/>
      <point x="743" y="1456" type="line"/>
      <point x="743" y="1300" type="line"/>
      <point x="530" y="1300" type="line"/>
      <point x="452" y="1308" type="line"/>
      <point x="454" y="1300" type="line"/>
      <point x="554" y="1262"/>
      <point x="601" y="1123"/>
      <point x="601" y="1019" type="qcurve" smooth="yes"/>
      <point x="601" y="862"/>
      <point x="421" y="640"/>
      <point x="264" y="640" type="qcurve"/>
      <point x="402" y="620"/>
      <point x="550" y="461"/>
      <point x="610" y="317" type="qcurve" smooth="yes"/>
      <point x="743" y="0" type="line"/>
    </contour>
  </outline>
</glyph>
<glyph name="minus" format="2">
  <advance width="825"/>
  <unicode hex="2212"/>
  <outline>
    <contour>
      <point x="57" y="586" type="line"/>
      <point x="57" y="759" type="line"/>
      <point x="767" y="759" type="line"/>
      <point x="767" y="586" type="line"/>
    </contour>
  </outline>
</glyph>
<glyph name="bulletoperator" format="2">
  <advance width="825"/>
  <unicode hex="2219"/>
  <outline>
    <contour>
      <point x="386" y="674" type="qcurve" smooth="yes"/>
      <point x="386" y="686"/>
      <point x="402" y="703"/>
      <point x="415" y="703" type="qcurve" smooth="yes"/>
      <point x="428" y="703"/>
      <point x="444" y="686"/>
      <point x="444" y="674" type="qcurve" smooth="yes"/>
      <point x="444" y="663"/>
      <point x="428" y="645"/>
      <point x="415" y="645" type="qcurve" smooth="yes"/>
      <point x="402" y="645"/>
      <point x="386" y="663"/>
    </contour>
  </outline>
</glyph>
<glyph name="approxequal" format="2">
  <advance width="825"/>
  <unicode hex="2248"/>
  <outline>
    <contour>
      <point x="60" y="706" type="qcurve"/>
      <point x="54" y="716" type="line"/>
      <point x="83" y="773"/>
      <point x="186" y="841"/>
      <point x="241" y="841" type="qcurve" smooth="yes"/>
      <point x="299" y="841"/>
      <point x="366" y="805"/>
      <point x="424" y="769" type="qcurve" smooth="yes"/>
      <point x="475" y="737"/>
      <point x="543" y="698"/>
      <point x="599" y="698" type="qcurve" smooth="yes"/>
      <point x="649" y="698"/>
      <point x="734" y="769"/>
      <point x="763" y="826" type="qcurve"/>
      <point x="770" y="816" type="line"/>
      <point x="741" y="763"/>
      <point x="652" y="691"/>
      <point x="599" y="691" type="qcurve" smooth="yes"/>
      <point x="544" y="691"/>
      <point x="472" y="732"/>
      <point x="421" y="764" type="qcurve" smooth="yes"/>
      <point x="363" y="800"/>
      <point x="299" y="834"/>
      <point x="241" y="834" type="qcurve" smooth="yes"/>
      <point x="187" y="834"/>
      <point x="89" y="766"/>
    </contour>
    <contour>
      <point x="60" y="458" type="qcurve"/>
      <point x="54" y="468" type="line"/>
      <point x="83" y="525"/>
      <point x="186" y="593"/>
      <point x="241" y="593" type="qcurve" smooth="yes"/>
      <point x="299" y="593"/>
      <point x="366" y="557"/>
      <point x="424" y="521" type="qcurve" smooth="yes"/>
      <point x="475" y="489"/>
      <point x="543" y="450"/>
      <point x="599" y="450" type="qcurve" smooth="yes"/>
      <point x="649" y="450"/>
      <point x="734" y="521"/>
      <point x="763" y="578" type="qcurve"/>
      <point x="770" y="568" type="line"/>
      <point x="741" y="515"/>
      <point x="652" y="443"/>
      <point x="599" y="443" type="qcurve" smooth="yes"/>
      <point x="544" y="443"/>
      <point x="472" y="484"/>
      <point x="421" y="516" type="qcurve" smooth="yes"/>
      <point x="363" y="552"/>
      <point x="299" y="586"/>
      <point x="241" y="586" type="qcurve" smooth="yes"/>
      <point x="187" y="586"/>
      <point x="89" y="518"/>
    </contour>
  </outline>
</glyph>
<glyph name="notequal" format="2">
  <advance width="825"/>
  <unicode hex="2260"/>
  <outline>
    <contour>
      <point x="600" y="1022" type="line"/>
      <point x="461" y="780" type="line"/>
      <point x="460" y="778" type="line"/>
      <point x="327" y="547" type="line"/>
      <point x="326" y="545" type="line"/>
      <point x="205" y="330" type="line"/>
      <point x="200" y="333" type="line"/>
      <point x="319" y="545" type="line"/>
      <point x="320" y="547" type="line"/>
      <point x="453" y="778" type="line"/>
      <point x="454" y="780" type="line"/>
      <point x="596" y="1025" type="line"/>
    </contour>
    <contour>
      <point x="57" y="542" type="line"/>
      <point x="57" y="549" type="line"/>
      <point x="767" y="549" type="line"/>
      <point x="767" y="542" type="line"/>
    </contour>
    <contour>
      <point x="57" y="777" type="line"/>
      <point x="57" y="784" type="line"/>
      <point x="767" y="784" type="line"/>
      <point x="767" y="777" type="line"/>
    </contour>
  </outline>
</glyph>
<glyph name="lessequal" format="2">
  <advance width="825"/>
  <unicode hex="2264"/>
  <outline>
    <contour>
      <point x="639" y="380" type="line"/>
      <point x="137" y="674" type="line"/>
      <point x="137" y="680" type="line"/>
      <point x="639" y="969" type="line"/>
      <point x="639" y="961" type="line"/>
      <point x="144" y="677" type="line"/>
      <point x="639" y="388" type="line"/>
    </contour>
    <contour>
      <point x="93" y="242" type="line"/>
      <point x="93" y="249" type="line"/>
      <point x="703" y="249" type="line"/>
      <point x="703" y="242" type="line"/>
    </contour>
  </outline>
</glyph>
<glyph name="greaterequal" format="2">
  <advance width="825"/>
  <unicode hex="2265"/>
  <outline>
    <contour>
      <point x="186" y="380" type="line"/>
      <point x="186" y="388" type="line"/>
      <point x="681" y="677" type="line"/>
      <point x="186" y="961" type="line"/>
      <point x="186" y="969" type="line"/>
      <point x="688" y="680" type="line"/>
      <point x="688" y="674" type="line"/>
    </contour>
    <contour>
      <point x="732" y="242" type="line"/>
      <point x="122" y="242" type="line"/>
      <point x="122" y="249" type="line"/>
      <point x="732" y="249" type="line"/>
    </contour>
  </outline>
</glyph>
<glyph name="Yi-dieresiscomb.case" format="2">
  <anchor x="0" y="1456" name="_top"/>
  <outline>
    <contour>
      <point x="-85" y="1683" type="qcurve"/>
      <point x="-85" y="1688"/>
      <point x="-79" y="1694"/>
      <point x="-74" y="1694" type="qcurve"/>
      <point x="-69" y="1694"/>
      <point x="-64" y="1688"/>
      <point x="-64" y="1683" type="qcurve"/>
      <point x="-64" y="1678"/>
      <point x="-69" y="1672"/>
      <point x="-74" y="1672" type="qcurve"/>
      <point x="-79" y="1672"/>
      <point x="-85" y="1678"/>
    </contour>
    <contour>
      <point x="57" y="1683" type="qcurve"/>
      <point x="57" y="1688"/>
      <point x="63" y="1694"/>
      <point x="68" y="1694" type="qcurve"/>
      <point x="73" y="1694"/>
      <point x="78" y="1688"/>
      <point x="78" y="1683" type="qcurve"/>
      <point x="78" y="1678"/>
      <point x="73" y="1672"/>
      <point x="68" y="1672" type="qcurve"/>
      <point x="63" y="1672"/>
      <point x="57" y="1678"/>
    </contour>
  </outline>
</glyph>
<glyph name="dieresiscomb.case" format="2">
  <anchor x="0" y="1456" name="_top"/>
  <anchor x="0" y="1724" name="top"/>
  <outline>
    <contour>
      <point x="-135" y="1685" type="qcurve"/>
      <point x="-135" y="1690"/>
      <point x="-129" y="1696"/>
      <point x="-124" y="1696" type="qcurve"/>
      <point x="-119" y="1696"/>
      <point x="-114" y="1690"/>
      <point x="-114" y="1685" type="qcurve"/>
      <point x="-114" y="1680"/>
      <point x="-119" y="1674"/>
      <point x="-124" y="1674" type="qcurve"/>
      <point x="-129" y="1674"/>
      <point x="-135" y="1680"/>
    </contour>
    <contour>
      <point x="114" y="1685" type="qcurve"/>
      <point x="114" y="1690"/>
      <point x="120" y="1696"/>
      <point x="125" y="1696" type="qcurve"/>
      <point x="130" y="1696"/>
      <point x="135" y="1690"/>
      <point x="135" y="1685" type="qcurve"/>
      <point x="135" y="1680"/>
      <point x="130" y="1674"/>
      <point x="125" y="1674" type="qcurve"/>
      <point x="120" y="1674"/>
      <point x="114" y="1680"/>
    </contour>
  </outline>
</glyph>
<glyph name="dieresistonoscomb" format="2">
  <anchor x="0" y="1052" name="_top"/>
  <outline>
    <contour>
      <point x="-163" y="1227" type="qcurve"/>
      <point x="-163" y="1232"/>
      <point x="-157" y="1238"/>
      <point x="-152" y="1238" type="qcurve"/>
      <point x="-147" y="1238"/>
      <point x="-142" y="1232"/>
      <point x="-142" y="1227" type="qcurve"/>
      <point x="-142" y="1222"/>
      <point x="-147" y="1216"/>
      <point x="-152" y="1216" type="qcurve"/>
      <point x="-157" y="1216"/>
      <point x="-163" y="1222"/>
    </contour>
    <contour>
      <point x="51" y="1204" type="line"/>
      <point x="-65" y="1212" type="line"/>
      <point x="43" y="1599" type="line"/>
      <point x="50" y="1599" type="line"/>
    </contour>
    <contour>
      <point x="140" y="1227" type="qcurve"/>
      <point x="140" y="1232"/>
      <point x="146" y="1238"/>
      <point x="151" y="1238" type="qcurve"/>
      <point x="156" y="1238"/>
      <point x="161" y="1232"/>
      <point x="161" y="1227" type="qcurve"/>
      <point x="161" y="1222"/>
      <point x="156" y="1216"/>
      <point x="151" y="1216" type="qcurve"/>
      <point x="146" y="1216"/>
      <point x="140" y="1222"/>
    </contour>
  </outline>
</glyph>
<glyph name="won.rvrn" format="2">
  <advance width="1366"/>
  <outline>
    <contour>
      <point x="375" y="-10" type="line"/>
      <point x="115" y="1456" type="line"/>
      <point x="122" y="1456" type="line"/>
      <point x="358" y="124" type="line"/>
      <point x="380" y="-3" type="line"/>
      <point x="388" y="-3" type="line"/>
      <point x="412" y="124" type="line" smooth="yes"/>
      <point x="663" y="1456" type="line"/>
      <point x="679" y="1456" type="line"/>
      <point x="939" y="124" type="line"/>
      <point x="962" y="-3" type="line"/>
      <point x="968" y="-3" type="line"/>
      <point x="989" y="124" type="line" smooth="yes"/>
      <point x="1215" y="1456" type="line"/>
      <point x="1222" y="1456" type="line"/>
      <point x="973" y="-10" type="line"/>
      <point x="957" y="-10" type="line"/>
      <point x="701" y="1311" type="line"/>
      <point x="674" y="1449" type="line"/>
      <point x="668" y="1449" type="line"/>
      <point x="642" y="1311" type="line" smooth="yes"/>
      <point x="393" y="-10" type="line"/>
    </contour>
    <contour>
      <point x="1140" y="1007" type="line"/>
      <point x="1143" y="1007" type="line"/>
      <point x="1143" y="1017" type="line"/>
      <point x="1318" y="1019" type="line"/>
      <point x="1318" y="882" type="line"/>
      <point x="1121" y="880" type="line"/>
      <point x="1121" y="885" type="line"/>
      <point x="1120" y="885" type="line"/>
    </contour>
    <contour>
      <point x="48" y="880" type="line"/>
      <point x="48" y="1017" type="line"/>
      <point x="195" y="1017" type="line"/>
      <point x="198" y="1007" type="line"/>
      <point x="199" y="1007" type="line"/>
      <point x="221" y="885" type="line"/>
      <point x="219" y="885" type="line"/>
      <point x="221" y="880" type="line"/>
    </contour>
    <contour>
      <point x="1080" y="652" type="line"/>
      <point x="1083" y="652" type="line"/>
      <point x="1083" y="657" type="line"/>
      <point x="1279" y="659" type="line"/>
      <point x="1279" y="522" type="line"/>
      <point x="1061" y="520" type="line"/>
      <point x="1061" y="530" type="line"/>
      <point x="1060" y="530" type="line"/>
    </contour>
    <contour>
      <point x="79" y="520" type="line"/>
      <point x="79" y="657" type="line"/>
      <point x="260" y="657" type="line"/>
      <point x="261" y="652" type="line"/>
      <point x="263" y="652" type="line"/>
      <point x="284" y="530" type="line"/>
      <point x="281" y="530" type="line"/>
      <point x="284" y="520" type="line"/>
    </contour>
  </outline>
</glyph>
